<?xml version="1.0" encoding="UTF-8" ?>
<!DOCTYPE svg PUBLIC "-//W3C//DTD SVG 1.1//EN" "http://www.w3.org/Graphics/SVG/1.1/DTD/svg11.dtd">
<svg width="600pt" height="600pt" viewBox="0 0 600 600" version="1.1" xmlns="http://www.w3.org/2000/svg">
<g id="#45c5fbff">
<path fill="#45c5fb" opacity="1.00" d=" M 276.49 1.91 C 344.67 -3.63 414.50 15.23 470.57 54.42 C 531.46 96.35 575.51 161.78 591.62 233.93 C 602.49 281.74 601.33 332.22 588.25 379.47 C 570.00 446.34 527.61 506.28 470.53 545.60 C 433.21 571.57 389.88 588.83 344.92 595.60 C 300.93 602.32 255.43 599.04 212.87 586.02 C 174.04 574.21 137.64 554.41 106.73 528.11 C 50.20 480.65 12.62 411.39 3.44 338.15 C -1.64 298.67 1.23 258.17 11.95 219.82 C 27.27 164.51 58.92 113.81 102.03 75.93 C 150.11 33.21 212.37 6.84 276.49 1.91 M 375.39 178.34 C 352.30 200.50 332.37 225.68 313.49 251.44 C 291.84 281.18 271.98 312.20 253.30 343.87 C 249.54 295.26 245.80 246.65 241.99 198.05 C 240.81 187.78 241.82 177.45 241.87 167.15 C 239.25 165.10 236.61 163.08 233.95 161.11 C 218.69 165.64 202.62 164.44 186.93 165.29 C 163.56 166.74 140.09 171.54 119.05 182.06 C 103.22 189.96 89.07 201.47 78.90 216.01 C 68.34 230.77 61.58 248.66 61.97 266.96 C 61.86 280.59 66.16 294.48 75.14 304.88 C 79.58 309.93 86.10 313.52 92.97 313.12 C 101.55 313.03 109.08 305.95 110.41 297.59 C 111.80 290.92 108.73 284.39 104.86 279.14 C 99.69 272.11 93.84 264.84 92.60 255.93 C 91.63 241.09 100.29 227.56 111.09 218.13 C 131.24 199.86 158.80 192.06 185.53 191.31 C 181.77 237.15 172.62 282.61 158.15 326.28 C 152.60 342.72 145.82 358.85 136.61 373.61 C 130.24 383.90 123.06 393.91 113.77 401.77 C 108.41 406.13 102.35 410.00 95.50 411.38 C 88.93 412.67 82.38 410.67 76.05 409.13 C 69.01 407.49 61.59 405.90 54.42 407.65 C 45.35 409.91 37.89 418.49 38.16 428.03 C 38.03 436.24 43.61 443.61 50.72 447.23 C 59.67 451.87 70.17 451.54 79.91 450.45 C 99.08 447.61 117.23 438.60 131.37 425.38 C 141.64 415.82 150.39 404.71 158.06 392.99 C 169.62 374.89 177.87 354.92 184.85 334.68 C 192.81 310.86 199.53 286.54 203.69 261.77 C 205.27 274.15 205.67 286.67 206.78 299.10 C 210.28 346.10 213.82 393.09 217.32 440.09 C 221.09 441.00 224.91 441.76 228.67 442.73 C 247.89 409.84 265.82 376.19 285.87 343.79 C 304.04 313.82 324.08 285.04 344.80 256.80 C 334.32 295.34 325.22 334.23 315.01 372.84 C 309.52 393.09 303.54 413.23 296.13 432.88 C 298.56 435.55 301.01 438.22 303.43 440.93 C 312.11 438.69 321.02 436.88 330.04 437.21 C 345.16 437.51 359.90 441.61 375.02 442.03 C 383.71 442.53 392.29 440.79 400.83 439.43 C 402.32 433.39 403.37 427.25 404.68 421.17 C 402.03 418.94 399.91 415.89 396.98 414.13 C 382.01 417.62 366.37 417.54 351.37 414.29 C 357.82 383.82 365.66 353.67 373.41 323.50 C 387.74 268.01 400.78 212.05 420.16 158.03 C 417.27 155.52 414.36 153.01 411.41 150.56 C 398.14 158.03 386.37 167.86 375.39 178.34 M 485.82 250.73 C 468.70 260.83 455.49 276.35 445.03 293.03 C 427.58 320.57 415.51 352.15 414.22 384.97 C 413.85 396.88 414.10 409.21 418.57 420.44 C 421.65 428.31 427.57 435.15 435.32 438.67 C 444.03 442.85 454.06 442.63 463.40 441.23 C 480.08 438.48 495.43 430.65 509.44 421.47 C 525.07 411.05 539.39 398.77 552.80 385.65 C 549.29 380.95 545.87 376.18 542.46 371.41 C 539.46 371.04 536.48 370.12 533.46 370.27 C 524.56 376.82 515.66 383.40 506.32 389.34 C 496.78 395.26 486.58 401.69 474.97 401.81 C 470.36 402.02 465.32 399.63 463.96 394.94 C 460.67 384.37 462.16 373.06 463.40 362.27 C 480.17 354.53 497.07 347.04 513.39 338.38 C 524.19 332.22 534.69 325.34 543.81 316.84 C 554.36 306.97 562.30 293.63 563.58 279.04 C 564.45 269.09 562.14 258.36 555.17 250.90 C 549.93 245.08 542.44 241.78 534.81 240.56 C 517.94 238.17 500.42 242.03 485.82 250.73 Z" />
<path fill="#45c5fb" opacity="1.00" d=" M 497.12 274.11 C 501.33 270.94 507.01 269.08 512.17 270.88 C 516.98 272.75 519.34 278.12 519.44 283.01 C 520.10 291.40 515.27 298.94 509.85 304.89 C 498.25 316.97 483.67 325.65 468.87 333.20 C 471.56 321.44 475.22 309.90 479.79 298.73 C 483.63 289.41 488.85 280.18 497.12 274.11 Z" />
</g>
<g id="#fefefeff">
<path fill="#fefefe" opacity="1.00" d=" M 375.39 178.34 C 386.37 167.86 398.14 158.03 411.41 150.56 C 414.36 153.01 417.27 155.52 420.16 158.03 C 400.78 212.05 387.74 268.01 373.41 323.50 C 365.66 353.67 357.82 383.82 351.37 414.29 C 366.37 417.54 382.01 417.62 396.98 414.13 C 399.91 415.89 402.03 418.94 404.68 421.17 C 403.37 427.25 402.32 433.39 400.83 439.43 C 392.29 440.79 383.71 442.53 375.02 442.03 C 359.90 441.61 345.16 437.51 330.04 437.21 C 321.02 436.88 312.11 438.69 303.43 440.93 C 301.01 438.22 298.56 435.55 296.13 432.88 C 303.54 413.23 309.52 393.09 315.01 372.84 C 325.22 334.23 334.32 295.34 344.80 256.80 C 324.08 285.04 304.04 313.82 285.87 343.79 C 265.82 376.19 247.89 409.84 228.67 442.73 C 224.91 441.76 221.09 441.00 217.32 440.09 C 213.82 393.09 210.28 346.10 206.78 299.10 C 205.67 286.67 205.27 274.15 203.69 261.77 C 199.53 286.54 192.81 310.86 184.85 334.68 C 177.87 354.92 169.62 374.89 158.06 392.99 C 150.39 404.71 141.64 415.82 131.37 425.38 C 117.23 438.60 99.08 447.61 79.91 450.45 C 70.17 451.54 59.67 451.87 50.72 447.23 C 43.61 443.61 38.03 436.24 38.16 428.03 C 37.89 418.49 45.35 409.91 54.42 407.65 C 61.59 405.90 69.01 407.49 76.05 409.13 C 82.38 410.67 88.93 412.67 95.50 411.38 C 102.35 410.00 108.41 406.13 113.77 401.77 C 123.06 393.91 130.24 383.90 136.61 373.61 C 145.82 358.85 152.60 342.72 158.15 326.28 C 172.62 282.61 181.77 237.15 185.53 191.31 C 158.80 192.06 131.24 199.86 111.09 218.13 C 100.29 227.56 91.63 241.09 92.60 255.93 C 93.84 264.84 99.69 272.11 104.86 279.14 C 108.73 284.39 111.80 290.92 110.41 297.59 C 109.08 305.95 101.55 313.03 92.97 313.12 C 86.10 313.52 79.58 309.93 75.14 304.88 C 66.16 294.48 61.86 280.59 61.97 266.96 C 61.58 248.66 68.34 230.77 78.90 216.01 C 89.07 201.47 103.22 189.96 119.05 182.06 C 140.09 171.54 163.56 166.74 186.93 165.29 C 202.62 164.44 218.69 165.64 233.95 161.11 C 236.61 163.08 239.25 165.10 241.87 167.15 C 241.82 177.45 240.81 187.78 241.99 198.05 C 245.80 246.65 249.54 295.26 253.30 343.87 C 271.98 312.20 291.84 281.18 313.49 251.44 C 332.37 225.68 352.30 200.50 375.39 178.34 Z" />
<path fill="#fefefe" opacity="1.00" d=" M 485.82 250.73 C 500.42 242.03 517.94 238.17 534.81 240.56 C 542.44 241.78 549.93 245.08 555.17 250.90 C 562.14 258.36 564.45 269.09 563.58 279.04 C 562.30 293.63 554.36 306.97 543.81 316.84 C 534.69 325.34 524.19 332.22 513.39 338.38 C 497.07 347.04 480.17 354.53 463.40 362.27 C 462.16 373.06 460.67 384.37 463.96 394.94 C 465.32 399.63 470.36 402.02 474.97 401.81 C 486.58 401.69 496.78 395.26 506.32 389.34 C 515.66 383.40 524.56 376.82 533.46 370.27 C 536.48 370.12 539.46 371.04 542.46 371.41 C 545.87 376.18 549.29 380.95 552.80 385.65 C 539.39 398.77 525.07 411.05 509.44 421.47 C 495.43 430.65 480.08 438.48 463.40 441.23 C 454.06 442.63 444.03 442.85 435.32 438.67 C 427.57 435.15 421.65 428.31 418.57 420.44 C 414.10 409.21 413.85 396.88 414.22 384.97 C 415.51 352.15 427.58 320.57 445.03 293.03 C 455.49 276.35 468.70 260.83 485.82 250.73 M 497.12 274.11 C 488.85 280.18 483.63 289.41 479.79 298.73 C 475.22 309.90 471.56 321.44 468.87 333.20 C 483.67 325.65 498.25 316.97 509.85 304.89 C 515.27 298.94 520.10 291.40 519.44 283.01 C 519.34 278.12 516.98 272.75 512.17 270.88 C 507.01 269.08 501.33 270.94 497.12 274.11 Z" />
</g>
</svg>
